<?xml version="1.0" encoding="utf-8"?>
<!-- Generator: Adobe Illustrator 21.0.0, SVG Export Plug-In . SVG Version: 6.00 Build 0)  -->
<svg version="1.1" id="Layer_1" xmlns="http://www.w3.org/2000/svg" xmlns:xlink="http://www.w3.org/1999/xlink" x="0px" y="0px"
	 viewBox="0 0 1000 346.6" style="enable-background:new 0 0 1000 346.6;" xml:space="preserve">
<style type="text/css">
	.st0{opacity:0.64;fill:#161515;enable-background:new    ;}
	.st1{fill:#161515;}
	.st2{display:none;fill:#81D3F1;}
</style>
<title>WoCode_ShapeDivider_SkyWater</title>
<g>
	<g id="Layer_1_1_">
		<path class="st0" d="M1000,339.3c-82,0-88.7-13-142-13c-46.7,0-33.1,12.9-85.1,12.9c-57.5,0-75.9-22.5-143.9-22.5
			c-56,0-99,24.1-149.5,24.1c-76.5,0-77.3-19.4-131.5-28.5c-56-9.4-72.8,29.1-142.8,29.1c-41.4,0-74.4-18.5-103.7-18.5
			C57.3,322.8,0,343.6,0,343.6v33h1000V339.3z"/>
		<path class="st1" d="M1000,326.7c-97.3,9-115.3-12-176.7-12c-53.3,0-60.1,31.6-122.6,31.6c-84,0-116.3-55.2-200-44.5
			c-80,10.3-86,38.5-153.3,38.5c-49.7,0-86.6-20.1-124-20.1c-33.3,0-51.3,19-78,19c-43.9,0-51.3-18.9-97.9-17.6
			C23,322.4,0,331.4,0,331.4v45.2h1000V326.7z"/>
		<path class="st2" d="M0,172.4c82,0,88.7,13,142,13c46.7,0,33.1-12.9,85.1-12.9c57.5,0,75.9,22.5,143.9,22.5
			c56,0,99-24.1,149.5-24.1c76.5,0,77.3,19.4,131.5,28.5c56,9.4,72.8-29.1,142.8-29.1c41.4,0,74.4,18.5,103.7,18.5
			c44.2,0,101.5-20.8,101.5-20.8V135H0V172.4z"/>
		<path class="st2" d="M0,184.9c97.3-9,115.3,12,176.7,12c53.3,0,60.1-31.6,122.6-31.6c84,0,116.3,55.2,200,44.5
			c80-10.3,86-38.5,153.3-38.5c49.7,0,86.7,20.1,124,20.1c33.3,0,51.3-19,78-19c43.9,0,51.3,18.9,97.9,17.6
			c24.4-0.7,47.4-9.7,47.4-9.7V135H0V184.9z"/>
	</g>
</g>
</svg>
